<?xml version="1.0" encoding="utf-8"?>
<!-- Generator: Adobe Illustrator 24.1.0, SVG Export Plug-In . SVG Version: 6.00 Build 0)  -->
<svg version="1.1" id="Layer_1" xmlns="http://www.w3.org/2000/svg" xmlns:xlink="http://www.w3.org/1999/xlink" x="0px" y="0px"
	 viewBox="0 0 238.04 64.76" style="enable-background:new 0 0 238.04 64.76;" xml:space="preserve">
<style type="text/css">
	.st0{fill:#AFAFAF;}
	.st1{fill:#00C37A;}
	.st2{fill:#02AD67;}
	.st3{fill:#7A4515;}
	.st4{fill:#68370E;}
	.st5{fill:#14B9C1;}
	.st6{fill:#2CD4E5;}
	.st7{fill:#915922;}
	.st8{fill:#824B1A;}
	.st9{fill:#FF7400;}
	.st10{fill:#FF5500;}
	.st11{fill:#FF3C00;}
	.st12{fill:#11C197;}
	.st13{fill:#11C5CE;}
</style>
<path class="st0" d="M230.42,12.82L217.77,1.79C216.69,0.84,215,1.56,214.92,3l-0.71,7.85l-0.1,1.08l6.74,5.88l1.27-0.26l7.54-1.71
	C231.04,15.53,231.49,13.76,230.42,12.82z"/>
<path class="st5" d="M200,49.27l21.99-31.52c0.08-0.11,0.06-0.27-0.05-0.36l-7.56-6.4c-0.1-0.08-0.25-0.08-0.34,0l-17.68,15.37
	L200,49.27z"/>
<path class="st6" d="M200.39,55.64c0.09,3.2,0.63,6.07-0.59,6.07h-13.24l-0.67-49.57h8.59c1.58,0,3.89,3.01,4.01,6.89L200.39,55.64z
	"/>
<path class="st6" d="M232.97,30.86c0,2.65-2.14,4.8-4.77,4.8c-2.63,0-4.77-2.15-4.77-4.8c0-2.11,3.03-4.92,4.26-5.98
	c0.3-0.25,0.73-0.25,1.02,0C229.94,25.94,232.97,28.75,232.97,30.86z"/>
<path class="st12" d="M228.2,31.75c0-1.48,1.49-3.31,2.8-4.63c-0.84-0.95-1.74-1.77-2.29-2.24c-0.3-0.25-0.73-0.25-1.02,0
	c-1.23,1.06-4.26,3.87-4.26,5.98c0,2.65,2.14,4.8,4.77,4.8c0.58,0,1.13-0.11,1.64-0.3C228.83,34.49,228.2,33.2,228.2,31.75z"/>
<path class="st6" d="M221.32,51.56c0,1.87-1.51,3.39-3.37,3.39c-1.86,0-3.37-1.52-3.37-3.39c0-1.41,1.91-3.26,2.85-4.09
	c0.3-0.26,0.74-0.26,1.03,0C219.41,48.3,221.32,50.15,221.32,51.56z"/>
<path class="st12" d="M217.95,50.83c0-0.81,0.63-1.76,1.34-2.58c-0.3-0.3-0.59-0.57-0.82-0.77c-0.3-0.26-0.74-0.26-1.03,0
	c-0.94,0.83-2.85,2.68-2.85,4.09c0,1.87,1.51,3.39,3.37,3.39c0.89,0,1.69-0.35,2.3-0.91C218.91,53.59,217.95,52.32,217.95,50.83z"/>
<path class="st6" d="M49.21,29.1H32.82c-1.19-1.89-3.43-3.08-6.65-3.08c-6.02,0-9.38,4.27-9.38,10.85c0,7.7,3.5,11.55,11.13,11.55
	c3.5,0,6.37-1.26,8.68-4.34H24.21V33.09h25.27v15.54c-3.43,5.95-10.43,13.44-23.24,13.44c-15.61,0-25.2-10.43-25.2-25.2
	s9.52-25.2,25.06-25.2C39.27,11.67,47.74,18.53,49.21,29.1z"/>
<path class="st2" d="M78.18,12.15c12.46,0,18.83,7.14,18.83,16.24c0,6.51-3.64,12.04-10.71,14.35l10.78,18.97H80l-9.31-17.78h-0.07
	v17.78H55.08V12.15H78.18z M76.78,25.18h-6.16v8.4h6.16c2.94,0,4.48-1.26,4.48-4.2C81.26,26.86,79.72,25.18,76.78,25.18z"/>
<path class="st6" d="M201.53,12.15v49.57h-15.54L169.53,36.8v24.92h-15.54V12.15h15.54l16.45,25.34V12.15H201.53z"/>
<path class="st13" d="M201.75,12.17l-15.54-0.06l0.11,49.47l15.44,0.13c0-0.51,0.04-1.86,0.04-4.1l-0.2-31.66"/>
<path class="st1" d="M127.08,12.38h16.08c2.52,0,4.55,1.61,4.55,3.6v26.47c0,10.77-11.06,19.5-24.68,19.5h-16.08
	c-2.52,0-4.56-1.61-4.56-3.6V31.87C102.39,21.11,113.45,12.38,127.08,12.38z"/>
</svg>
