<?xml version="1.0" encoding="utf-8"?>
<!-- Generator: Adobe Illustrator 24.1.0, SVG Export Plug-In . SVG Version: 6.00 Build 0)  -->
<svg version="1.1" id="Layer_1" xmlns="http://www.w3.org/2000/svg" xmlns:xlink="http://www.w3.org/1999/xlink" x="0px" y="0px"
	 viewBox="0 0 203.93 53.87" style="enable-background:new 0 0 203.93 53.87;" xml:space="preserve">
<style type="text/css">
	.st0{fill:#AFAFAF;}
	.st1{fill:#00C37A;}
	.st2{fill:#02AD67;}
	.st3{fill:#7A4515;}
	.st4{fill:#68370E;}
	.st5{fill:#14B9C1;}
	.st6{fill:#2CD4E5;}
	.st7{fill:#915922;}
	.st8{fill:#824B1A;}
	.st9{fill:#FF7400;}
	.st10{fill:#FF5500;}
	.st11{fill:#FF3C00;}
	.st12{fill:#11C197;}
	.st13{fill:#11C5CE;}
	.st14{clip-path:url(#SVGID_2_);fill:#04BC6D;}
	.st15{fill:#24C9D1;}
	.st16{fill:#04BC6D;}
</style>
<path class="st6" d="M200.75,45.84c0.09,3.2,0.63,6.07-0.59,6.07h-13.24l-0.67-49.57h8.59c1.58,0,3.89,3.01,4.01,6.89L200.75,45.84z
	"/>
<path class="st6" d="M49.57,19.3H33.19c-1.19-1.89-3.43-3.08-6.65-3.08c-6.02,0-9.38,4.27-9.38,10.85c0,7.7,3.5,11.55,11.13,11.55
	c3.5,0,6.37-1.26,8.68-4.34H24.58V23.29h25.27v15.54c-3.43,5.95-10.43,13.44-23.24,13.44C11,52.27,1.4,41.84,1.4,27.07
	s9.52-25.2,25.06-25.2C39.63,1.87,48.1,8.73,49.57,19.3z"/>
<path class="st2" d="M78.55,2.36c12.46,0,18.83,7.14,18.83,16.24c0,6.51-3.64,12.04-10.71,14.35l10.78,18.97H80.37l-9.31-17.78
	h-0.07v17.78H55.44V2.36H78.55z M77.15,15.38h-6.16v8.4h6.16c2.94,0,4.48-1.26,4.48-4.2C81.63,17.06,80.09,15.38,77.15,15.38z"/>
<path class="st6" d="M201.89,2.36v49.57h-15.54L169.9,27v24.92h-15.54V2.36h15.54l16.45,25.34V2.36H201.89z"/>
<path class="st13" d="M202.12,2.38l-15.54-0.06l0.11,49.47l15.44,0.13c0-0.51,0.04-1.86,0.04-4.1l-0.2-31.66"/>
<g>
	<defs>
		<path id="SVGID_1_" d="M127.45,2.58h16.08c2.52,0,4.55,1.61,4.55,3.6v26.47c0,10.77-11.06,19.5-24.68,19.5h-16.08
			c-2.52,0-4.56-1.61-4.56-3.6V22.07C102.75,11.31,113.81,2.58,127.45,2.58z"/>
	</defs>
	<use xlink:href="#SVGID_1_"  style="overflow:visible;fill:#02AD67;"/>
	<clipPath id="SVGID_2_">
		<use xlink:href="#SVGID_1_"  style="overflow:visible;"/>
	</clipPath>
	
		<rect x="76.69" y="2.42" transform="matrix(0.671 -0.7414 0.7414 0.671 23.058 89.3651)" class="st14" width="71.09" height="32.56"/>
</g>
<polygon class="st15" points="49.83,38.83 36.97,34.28 24.58,34.28 24.58,23.29 49.83,23.29 "/>
<rect x="55.44" y="2.36" class="st16" width="15.54" height="49.57"/>
</svg>
