<?xml version="1.0" encoding="iso-8859-1"?>
<!-- Generator: Adobe Illustrator 19.0.0, SVG Export Plug-In . SVG Version: 6.00 Build 0)  -->
<svg version="1.1" id="Capa_1" xmlns="http://www.w3.org/2000/svg" xmlns:xlink="http://www.w3.org/1999/xlink" x="0px" y="0px"
	 viewBox="0 0 512.002 512.002" style="enable-background:new 0 0 512.002 512.002;" xml:space="preserve">
<g>
	<g>
		<path d="M405.017,265.726c-2.847-3.463-7.094-5.471-11.578-5.471h-111.95v-71.553c4.076,0.638,8.163,0.959,12.23,0.959
			c20.576,0,40.595-8.072,55.707-23.183c21.245-21.245,28.574-52.183,19.128-80.741c-1.49-4.502-5.021-8.034-9.523-9.522
			c-28.359-9.38-59.063-2.209-80.291,18.695c-7.616-18.017-19.087-35.165-33.987-50.066C208.986,9.076,160.284-7.012,117.655,2.86
			c-5.577,1.291-9.93,5.644-11.221,11.22c-9.87,42.631,6.216,91.333,41.983,127.099c28.803,28.803,65.992,44.843,101.646,44.843
			c0.484,0,0.966-0.014,1.45-0.02v74.252H139.564c-4.483,0-8.731,2.007-11.578,5.471c-2.847,3.462-3.995,8.018-3.128,12.417
			l8.209,41.645h266.866v0.001l8.209-41.646C409.012,273.744,407.863,269.188,405.017,265.726z"/>
	</g>
</g>
<g>
	<g>
		<g>
			<polygon points="138.978,349.764 138.978,349.764 138.978,349.764 			"/>
			<path d="M138.978,349.764l29.598,150.148c1.385,7.024,7.545,12.089,14.705,12.089h166.442c7.16,0,13.32-5.064,14.705-12.089
				l29.598-150.148H138.978z"/>
		</g>
	</g>
</g>
<g>
</g>
<g>
</g>
<g>
</g>
<g>
</g>
<g>
</g>
<g>
</g>
<g>
</g>
<g>
</g>
<g>
</g>
<g>
</g>
<g>
</g>
<g>
</g>
<g>
</g>
<g>
</g>
<g>
</g>
</svg>
